<?xml version="1.0" standalone="no"?>
<!DOCTYPE svg PUBLIC "-//W3C//DTD SVG 20010904//EN"
 "http://www.w3.org/TR/2001/REC-SVG-20010904/DTD/svg10.dtd">
<svg version="1.0" xmlns="http://www.w3.org/2000/svg"
 width="529.000000pt" height="600.000000pt" viewBox="0 0 529.000000 600.000000"
 preserveAspectRatio="xMidYMid meet">
<g transform="translate(0.000000,600.000000) scale(0.100000,-0.100000)"
fill="#000000" stroke="none">
<path d="M2535 5240 c-374 -31 -739 -203 -1040 -491 -44 -42 -110 -95 -147
-118 -73 -46 -84 -57 -42 -40 15 5 29 7 32 5 2 -3 -16 -29 -41 -59 -82 -95
-212 -301 -284 -448 -306 -624 -355 -1397 -132 -2079 228 -699 769 -1245 1387
-1401 123 -31 325 -59 429 -59 90 0 295 29 401 56 586 152 1106 650 1357 1299
210 543 232 1231 58 1804 -120 395 -307 713 -583 992 -317 320 -682 499 -1095
539 -120 11 -164 11 -300 0z m463 -89 c136 -29 242 -66 377 -131 423 -206 757
-565 969 -1043 58 -132 74 -177 60 -177 -5 1 -36 8 -69 17 -33 8 -124 25 -202
37 -131 19 -145 23 -175 52 -29 27 -46 33 -135 48 -98 15 -173 41 -173 58 0 4
123 8 273 9 200 1 260 4 227 11 -25 5 -152 7 -283 5 -232 -4 -238 -4 -252 17
-30 41 -20 53 39 48 29 -2 56 0 59 5 4 5 -7 25 -23 44 -16 19 -29 39 -30 45 0
6 -7 18 -16 25 -31 25 -124 189 -124 217 0 10 8 12 29 7 32 -7 48 7 31 27 -31
37 -130 215 -130 236 0 9 27 13 98 14 l97 2 -95 5 -94 6 -10 39 c-5 22 -17 48
-26 59 -18 18 -18 18 -25 -15 -3 -18 -11 -45 -17 -60 l-10 -28 -170 0 c-165 0
-169 0 -177 22 l-8 23 -7 -23 -7 -22 -437 -2 -437 -3 430 -2 c236 -2 433 -7
438 -12 5 -5 4 -25 -2 -47 -5 -22 -15 -66 -22 -99 -7 -33 -18 -71 -25 -85 -42
-86 -44 -95 -24 -98 23 -4 25 -18 9 -59 -6 -15 -13 -38 -15 -49 -2 -12 -24
-63 -50 -114 -53 -109 -54 -134 -4 -138 19 -2 39 -7 44 -12 10 -10 -11 -70
-25 -70 -5 0 -9 -7 -9 -15 0 -31 -31 -65 -60 -65 -43 0 -92 71 -57 83 9 3 8
16 -7 53 -47 124 -59 166 -50 172 10 7 3 176 -7 186 -5 5 -89 -191 -89 -206 0
-5 7 -8 15 -8 24 0 17 -31 -21 -93 -39 -63 -39 -87 1 -87 37 0 32 -26 -19 -96
-24 -33 -51 -76 -61 -94 -17 -32 -17 -34 1 -47 13 -10 33 -12 67 -8 61 9 63
-9 6 -70 -48 -52 -85 -65 -182 -65 -85 0 -208 -25 -262 -53 -61 -32 -203 -36
-286 -8 -35 11 -98 25 -139 31 -101 14 -144 27 -172 50 l-23 19 31 1 c17 0 34
3 38 7 3 4 -22 33 -56 64 l-63 58 37 1 c20 0 40 5 43 10 4 6 -7 32 -23 58 -16
26 -35 63 -42 82 -8 19 -22 49 -32 65 -31 51 -27 54 80 58 l97 3 -102 2 -102
2 -11 53 c-6 30 -8 61 -5 70 4 8 -3 37 -14 63 -12 25 -21 53 -21 60 0 8 -4 14
-10 14 -5 0 -7 -6 -5 -12 5 -12 -24 -134 -40 -170 -5 -14 -2 -18 14 -18 24 0
25 -1 9 -35 -11 -24 -16 -25 -97 -27 l-86 -2 75 -3 c41 -2 79 -8 83 -12 4 -4
-7 -28 -26 -53 -64 -83 -70 -105 -33 -110 l25 -3 -28 -40 -27 -40 -84 -6 -85
-5 80 -2 80 -2 -36 -36 c-35 -35 -37 -35 -150 -44 -63 -4 -116 -7 -118 -5 -5
5 35 123 81 240 93 236 266 510 441 698 39 42 47 43 232 38 74 -1 124 -9 189
-29 l89 -26 21 29 c89 127 277 230 458 251 79 10 48 22 -60 23 -151 2 -331
-57 -425 -139 l-46 -41 -58 17 c-44 13 -81 15 -163 11 l-105 -5 55 50 c131
119 372 255 557 317 84 28 243 63 333 75 87 11 387 -3 478 -23z m357 -451 c0
-8 6 -16 13 -16 6 -1 14 -2 17 -3 6 -1 -42 -100 -60 -121 -7 -8 -15 -26 -18
-38 -5 -21 -3 -23 19 -18 17 5 24 2 24 -8 0 -8 -5 -18 -10 -21 -6 -4 -8 -10
-5 -15 6 -10 -36 -98 -69 -145 -11 -16 -27 -41 -34 -54 -12 -23 -12 -24 27
-18 22 3 42 3 44 1 11 -11 -37 -122 -70 -163 -55 -68 -70 -76 -77 -38 -16 74
-16 97 -4 97 7 0 19 4 26 8 14 10 5 32 -35 89 -13 17 -23 38 -23 46 0 9 -4 18
-9 22 -15 9 -35 117 -23 124 20 12 15 37 -18 104 -32 65 -33 68 -14 81 18 14
18 16 2 44 -37 62 -35 63 140 60 132 -3 157 -5 157 -18z m23 -672 c72 -121 76
-303 10 -478 -12 -30 -25 -59 -30 -64 -16 -19 -8 -25 18 -16 42 16 74 13 74
-9 0 -21 -57 -75 -89 -86 -31 -10 -26 -47 16 -134 77 -156 164 -201 388 -201
135 0 157 8 181 66 13 31 59 73 69 63 2 -3 9 -43 14 -89 6 -47 20 -112 31
-145 10 -33 24 -88 29 -121 14 -93 44 -140 147 -237 52 -49 94 -94 94 -100 0
-32 56 -127 95 -163 35 -32 45 -49 45 -73 l0 -31 -39 19 c-62 32 -97 67 -110
111 -18 59 -130 180 -190 203 -25 10 -57 29 -71 42 -14 12 -44 32 -68 44 -23
12 -67 44 -97 71 -73 66 -106 74 -281 66 -158 -7 -230 2 -315 41 l-57 25 -78
-22 c-96 -27 -219 -72 -273 -100 -22 -11 -48 -20 -58 -20 -11 0 -36 -9 -58
-20 -124 -63 -58 26 75 101 41 23 107 60 145 81 148 83 189 113 209 153 27 53
25 143 -3 216 -21 56 -23 57 -96 88 -41 17 -79 31 -84 31 -18 0 -32 39 -22 58
8 14 33 20 128 31 163 18 161 17 173 60 17 63 12 100 -19 140 -54 68 -106 190
-99 233 3 18 13 5 45 -57 88 -172 149 -165 160 19 4 68 1 94 -20 159 -26 81
-22 99 11 45z m-1473 -765 c4 -10 9 -52 12 -93 l5 -75 68 -70 c79 -82 179
-228 227 -332 55 -119 90 -281 64 -297 -5 -3 -16 12 -25 34 -8 21 -24 43 -34
49 -21 11 -145 41 -150 36 -13 -12 62 -93 92 -101 46 -11 39 -24 -12 -24 -70
0 -149 29 -267 97 -54 32 -62 34 -96 24 -20 -6 -54 -11 -76 -11 -33 0 -46 7
-87 49 -50 50 -53 71 -11 71 60 0 58 10 -12 84 -37 39 -78 84 -90 99 -13 15
-29 27 -38 27 -8 0 -19 9 -25 20 -24 45 -159 84 -235 68 -42 -9 -60 -20 -115
-77 -67 -67 -98 -128 -115 -225 -4 -26 -10 -35 -16 -29 -13 13 5 184 26 243
34 98 103 189 209 279 35 30 37 33 22 50 -38 42 -44 41 326 44 l96 0 6 28 c5
27 7 28 53 23 27 -3 69 1 98 10 68 19 92 19 100 -1z m1745 -763 c113 -32 186
-75 270 -160 87 -86 130 -162 154 -267 50 -226 -18 -501 -189 -758 -52 -78
-183 -230 -192 -222 -2 2 14 35 36 74 72 124 117 269 128 413 15 200 -74 367
-243 457 -97 52 -172 67 -324 67 -222 0 -370 -41 -749 -208 -317 -140 -498
-188 -721 -189 -198 -1 -348 41 -491 137 -70 47 -191 167 -235 233 -42 63 -95
194 -101 248 l-4 40 32 -58 c49 -87 150 -177 261 -231 155 -77 302 -102 494
-85 224 19 352 63 744 254 379 184 551 248 745 274 108 15 297 5 385 -19z
m-236 -611 c108 -37 187 -107 235 -209 24 -50 26 -66 26 -185 0 -93 -5 -151
-19 -205 -27 -109 -96 -248 -156 -312 -44 -47 -49 -49 -39 -23 17 47 39 184
39 242 0 174 -78 301 -227 371 -52 24 -71 27 -188 30 -117 3 -142 0 -246 -26
-64 -17 -192 -60 -285 -97 -313 -125 -412 -149 -629 -149 -137 -1 -171 3 -238
22 -199 57 -365 176 -478 342 -41 60 -114 208 -107 216 2 2 34 -33 71 -76 117
-139 277 -231 464 -269 253 -52 500 -5 913 172 256 109 435 163 605 181 72 7
199 -5 259 -25z m-864 -549 c12 -8 12 -10 -5 -10 -23 -1 -65 -33 -65 -49 0
-13 1 -13 58 -2 46 9 54 0 20 -24 -75 -53 -95 -66 -115 -74 -26 -12 -30 -47
-9 -76 13 -18 14 -18 40 3 15 11 43 26 62 32 19 6 34 18 34 26 0 8 5 14 10 14
6 0 10 -3 10 -7 0 -10 187 -10 196 0 12 12 24 8 24 -8 0 -8 15 -22 33 -31 17
-9 42 -25 54 -37 l22 -20 9 24 c23 60 23 67 4 73 -11 4 -27 15 -37 26 -10 11
-26 20 -35 20 -9 0 -29 14 -46 31 l-29 31 60 -7 60 -7 -29 31 c-18 19 -40 31
-55 31 -21 0 -23 2 -11 10 8 5 36 10 62 10 41 0 54 -5 89 -37 51 -46 69 -81
69 -133 0 -54 -20 -100 -59 -133 l-33 -27 31 0 c43 0 111 62 111 101 0 38 16
37 23 0 16 -80 -48 -151 -136 -151 -59 0 -55 -9 10 -26 54 -14 95 -2 114 33
18 34 29 28 19 -9 -11 -38 -65 -88 -95 -88 -18 1 -57 13 -107 35 -10 4 -18 3
-18 -2 0 -5 22 -20 49 -33 49 -23 75 -57 65 -85 -5 -12 -12 -9 -34 15 -15 17
-37 30 -48 30 -10 0 -31 9 -45 21 -19 14 -32 17 -43 11 -13 -7 -12 -11 10 -26
33 -21 38 -89 7 -106 -35 -18 -42 -12 -26 21 20 37 11 50 -49 81 -55 28 -133
25 -198 -8 -52 -27 -62 -52 -31 -86 15 -17 15 -18 -4 -18 -11 0 -26 6 -32 14
-29 35 -19 106 14 106 8 0 15 4 15 9 0 19 -20 22 -42 6 -13 -8 -40 -20 -60
-25 -26 -8 -40 -19 -50 -40 -16 -36 -28 -39 -28 -6 0 42 11 56 61 82 60 30 65
50 7 24 -24 -11 -53 -20 -66 -20 -38 0 -83 29 -98 65 -22 53 -17 62 14 26 30
-36 44 -38 130 -25 58 9 53 24 -10 24 -39 0 -59 6 -83 24 -35 27 -57 85 -48
129 7 35 23 35 23 0 0 -38 65 -103 102 -103 l29 0 -35 35 c-76 76 -56 218 38
276 33 20 101 25 126 9z"/>
</g>
</svg>
